{
  "title": "RoboCop (2014) BluRay 720p x264 Dual Audio [English 5.1 + Hindi",
  "uid": 12602657,
  "size": 1058884339,
  "categoryP": "video",
  "categoryS": "movies",
  "magnet": "?xt=urn:btih:20aebe6992b6f78cc1792044327ce673f6bd269d&amp;dn=RoboCop+%282014%29+BluRay+720p+x264+Dual+Audio+%5BEnglish+5.1+%2B+Hindi+&amp;tr=udp%3A%2F%2Ftracker.leechers-paradise.org%3A6969&amp;tr=udp%3A%2F%2Fzer0day.ch%3A1337&amp;tr=udp%3A%2F%2Fopen.demonii.com%3A1337&amp;tr=udp%3A%2F%2Ftracker.coppersurfer.tk%3A6969&amp;tr=udp%3A%2F%2Fexodus.desync.com%3A6969",
  "seeders": 38,
  "leechers": 12,
  "uploader": "makintos13",
  "files": 2,
  "time": 1445343850,
  "description": "http://imgmak.com/image/qB\r\n \nhttp://imgmak.com/image/qI\r\n \nhttp://imgmak.com/image/qq\r\n \nhttp://imgmak.com/image/qt\r\n \nhttp://imgmak.com/image/q2\r\n\r\n\r\n\r\nVideo\r\nID : 1\r\nFormat : AVC\r\nFormat/Info : Advanced Video Codec\r\nFormat profile :   \r\nFormat settings, CABAC : Yes\r\nFormat settings, ReFrames : 4 frames\r\nCodec ID : V_MPEG4/ISO/AVC\r\nDuration : 1h 57mn\r\nBit rate : 934 Kbps\r\nWidth : 1 280 pixels\r\nHeight : 536 pixels\r\nDisplay aspect ratio : 2.40:1\r\nFrame rate mode : Constant\r\nFrame rate : 23.976 fps\r\nColor space : YUV\r\nChroma subsampling : 4:2:0\r\nBit depth : 8 bits\r\nScan type : Progressive\r\nBits/(Pixel*Frame) : 0.057\r\nStream size : 767 MiB (77%)\r\n\r\nAudio #1\r\nID : 2\r\nFormat : AC-3\r\nFormat/Info : Audio Coding 3\r\nMode extension : CM (complete main)\r\nFormat settings, Endianness : Big\r\nCodec ID : A_AC3\r\nDuration : 1h 57mn\r\nBit rate mode : Constant\r\nBit rate : 128 Kbps\r\nChannel(s) : 6 channels\r\nChannel positions : Front: L C R, Side: L R, LFE\r\nSampling rate : 48.0 KHz\r\nBit depth : 16 bits\r\nCompression mode : Lossy\r\nStream size : 108 MiB (11%)\r\nLanguage : English\r\nDefault : No\r\nForced : No\r\n\r\nAudio #2\r\nID : 3\r\nFormat : AC-3\r\nFormat/Info : Audio Coding 3\r\nMode extension : CM (complete main)\r\nFormat settings, Endianness : Big\r\nCodec ID : A_AC3\r\nDuration : 1h 57mn\r\nBit rate mode : Constant\r\nBit rate : 128 Kbps\r\nChannel(s) : 6 channels\r\nChannel positions : Front: L C R, Side: L R, LFE\r\nSampling rate : 48.0 KHz\r\nBit depth : 16 bits\r\nCompression mode : Lossy\r\nStream size : 108 MiB (11%)\r\nLanguage : Hindi\r\nDefault : Yes\r\nForced : No",
  "parsed": {
    "xt": "urn:btih:20aebe6992b6f78cc1792044327ce673f6bd269d",
    "dn": "RoboCop (2014) BluRay 720p x264 Dual Audio [English 5.1   Hindi ",
    "tr": [
      "udp://exodus.desync.com:6969",
      "udp://open.demonii.com:1337",
      "udp://tracker.coppersurfer.tk:6969",
      "udp://tracker.leechers-paradise.org:6969",
      "udp://zer0day.ch:1337"
    ],
    "infoHash": "20aebe6992b6f78cc1792044327ce673f6bd269d",
    "infoHashBuffer": {
      "type": "Buffer",
      "data": [
        32,
        174,
        190,
        105,
        146,
        182,
        247,
        140,
        193,
        121,
        32,
        68,
        50,
        124,
        230,
        115,
        246,
        189,
        38,
        157
      ]
    },
    "name": "RoboCop (2014) BluRay 720p x264 Dual Audio [English 5.1   Hindi ",
    "announce": [
      "udp://exodus.desync.com:6969",
      "udp://open.demonii.com:1337",
      "udp://tracker.coppersurfer.tk:6969",
      "udp://tracker.leechers-paradise.org:6969",
      "udp://zer0day.ch:1337"
    ],
    "urlList": []
  },
  "previous": 50,
  "peers": 64,
  "last_updated": "2016-12-24T19:25:19.304Z"
}